<svg viewBox="0 0 300 324.99994" version="1.1" width="300" height="324.99994" xmlns="http://www.w3.org/2000/svg">
  <style>
    path {
      fill: #333;
    }

    @media (prefers-color-scheme: dark) {
      path {
        fill: #ccc;
      }
    }
  </style>
  <path
    d="m 274.92187,74.765631 c 2.42189,2.421861 6.40625,2.421861 8.82812,0 l 8.82813,-8.828139 c 2.42188,-2.421861 2.42188,-6.40623 0,-8.828129 L 272.65625,37.187508 c -2.42188,-2.421872 -6.40625,-2.421872 -8.82812,0 L 255,46.015637 c -2.42187,2.421871 -2.42187,6.406239 0,8.828101 z" />
  <path
    d="M 168.75,26.171876 V 12.500001 C 168.75,5.625 163.125,0 156.24999,0 H 143.75001 C 136.875,0 131.25,5.625 131.25,12.500001 V 26.171876 C 57.265636,35.390631 0,98.515637 0,174.99999 c 0,82.8125 67.187508,149.99996 150,149.99996 82.81249,0 150,-67.18746 150,-149.99996 C 300,98.515636 242.73437,35.390631 168.75,26.171876 Z m -7.8125,171.328114 v 15 c 0,6.01565 -4.92189,10.93751 -10.9375,10.93751 -6.01561,0 -10.93751,-4.92186 -10.93751,-10.93751 v -15 c -8.35936,-4.06249 -14.06248,-12.57811 -14.06248,-22.5 0,-9.92187 5.70312,-18.4375 14.06248,-22.5 V 75 c 0,-6.015614 4.9219,-10.937508 10.93751,-10.937508 6.01562,0 10.9375,4.921895 10.9375,10.937508 v 77.49999 c 8.35937,4.0625 14.06249,12.57813 14.06249,22.5 0,9.92189 -5.70312,18.43751 -14.06249,22.5 z" />
</svg>